<svg version="1.0" xmlns="http://www.w3.org/2000/svg"
     viewBox="0 0 512.000000 512.000000" height="45" width="45"
     preserveAspectRatio="xMidYMid meet">
    <defs>
        <linearGradient id="gradient">
            <stop offset="0%" stop-color="var(--color-stop)" />
            <stop offset="100%" stop-color="var(--color-bot)" />
        </linearGradient>
    </defs>
    <g transform="translate(0.000000,512.000000) scale(0.100000,-0.100000)">
        <path
                d="M2321 5110 c-497 -48 -990 -251 -1376 -565 -114 -92 -294 -274 -384
-387 -229 -287 -417 -675 -495 -1023 -49 -218 -60 -325 -60 -575 0 -250 11
-357 60 -575 79 -355 272 -749 509 -1040 92 -114 274 -294 387 -384 287 -229
675 -417 1023 -495 218 -49 325 -60 575 -60 250 0 357 11 575 60 261 58 603
204 828 353 389 259 688 599 893 1016 125 255 196 484 241 775 24 161 24 539
0 700 -45 291 -116 520 -241 775 -134 272 -283 480 -498 692 -211 209 -404
346 -673 478 -252 124 -486 197 -765 240 -126 19 -468 27 -599 15z m306 -777
c45 -30 53 -66 53 -258 0 -187 -7 -222 -50 -260 -15 -14 -36 -20 -70 -20 -54
0 -84 20 -106 72 -17 39 -20 367 -4 408 5 14 22 37 36 50 33 30 101 34 141 8z
m-1024 -373 c50 -40 240 -273 253 -311 33 -94 -54 -176 -154 -145 -22 7 -204
213 -256 290 -29 44 -33 83 -11 126 30 58 118 79 168 40z m2037 5 c62 -32 76
-108 34 -171 -52 -77 -234 -283 -256 -290 -56 -17 -125 5 -145 48 -21 44 -23
59 -9 97 13 38 203 271 253 311 31 24 82 26 123 5z m-839 -499 c173 -51 291
-120 402 -234 195 -203 272 -460 222 -746 -29 -167 -75 -268 -216 -481 -151
-228 -219 -381 -219 -490 0 -48 -22 -98 -53 -121 l-25 -19 30 -32 c41 -43 43
-101 4 -142 l-26 -28 20 -18 c45 -40 42 -121 -5 -162 -20 -18 -38 -23 -79 -23
-53 0 -53 0 -64 -38 -28 -93 -128 -164 -232 -164 -104 0 -204 71 -232 164 -11
38 -11 38 -64 38 -41 0 -59 5 -79 22 -47 42 -50 123 -5 163 l20 18 -26 28
c-39 40 -37 100 3 141 l30 29 -33 33 c-25 25 -34 44 -38 82 -22 177 -66 279
-225 519 -141 212 -187 314 -216 481 -85 488 221 913 722 1004 91 17 289 4
384 -24z m-1617 -456 c93 -17 177 -35 187 -40 36 -20 59 -61 59 -107 0 -38 -5
-50 -34 -79 -27 -27 -42 -34 -72 -34 -48 0 -329 48 -367 62 -44 17 -77 63 -77
109 0 51 13 75 53 99 42 26 52 25 251 -10z m2996 15 c41 -21 60 -53 60 -101 0
-49 -32 -95 -77 -112 -38 -14 -319 -62 -367 -62 -30 0 -45 7 -72 34 -29 29
-34 41 -34 81 0 40 5 52 33 80 28 28 44 34 132 50 55 10 129 23 165 30 89 18
126 18 160 0z"
        />
    </g>
</svg>
