<svg width="50" height="50" viewBox="0 0 512 512" fill="none" xmlns="http://www.w3.org/2000/svg">
    <defs>
        <linearGradient id="paint0_linear_1_2" x1="121.598" y1="480.864" x2="398.417" y2="43.2962"
                        gradientUnits="userSpaceOnUse">
            <stop offset="0.122957" stop-color="#520B8A"/>
            <stop offset="1" stop-color="#6200AE" stop-opacity="0.43"/>
        </linearGradient>
    </defs>
    <path d="M512 256C512 397.385 397.385 512 256 512C114.615 512 0 397.385 0 256C0 114.615 114.615 0 256 0C397.385 0 512 114.615 512 256Z"
          fill="url(#paint0_linear_1_2)"/>
    <path d="M390.574 384.025C384.408 390.69 410.823 315.178 375.724 286.38C402.723 358.826 352.776 397.974 344.676 405.174C287.079 436.672 238.004 425.731 218.232 410.573C242.531 398.874 266.38 388.075 299.678 321.028C332.977 237.332 336.169 211.684 385.624 211.684C463.92 232.383 444.571 347.577 390.574 384.025Z"
          fill="white" fill-opacity="0.91"/>
    <path d="M303.728 281.88C291.579 309.328 289.779 316.528 272.68 346.226C209.233 307.978 161.086 232.382 150.286 152.736C193.934 150.036 215.983 181.085 221.382 187.384C220.736 187.384 193.484 172.535 188.084 177.935C241.181 201.334 251.531 271.08 303.728 281.88Z"
          fill="white"/>
    <path d="M265.93 354.326C233.532 405.624 197.084 401.574 177.285 389.875C162.111 370.526 164.42 324.178 165.586 300.779C157.936 309.329 153.886 342.627 161.573 381.325C124.188 344.427 136.787 285.48 134.987 274.23C131.837 274.23 121.488 304.829 128.687 342.627C86.3896 267.931 131.12 216.886 128.687 209.434C119.688 211.684 111.138 223.383 99.4389 269.731C94.4891 180.185 122.388 172.986 119.688 165.336C98.5389 177.485 85.4896 177.485 74.2402 177.485C91.7893 175.817 113.838 159.036 122.388 155.437C119.688 120.338 114.738 111.339 126.438 87.04C143.987 250.382 193.934 313.378 265.93 354.326Z"
          fill="white"/>
</svg>
