<svg version="1.0" xmlns="http://www.w3.org/2000/svg"
     width="45px" height="45px" viewBox="0 0 512.000000 512.000000"
     preserveAspectRatio="xMidYMid meet">
    <defs>
        <linearGradient id="gradient">
            <stop offset="0%" stop-color="var(--color-stop)"/>
            <stop offset="100%" stop-color="var(--color-bot)"/>
        </linearGradient>
    </defs>
    <g transform="translate(0.000000,512.000000) scale(0.100000,-0.100000)">
        <path
                d="M2400 5114 c-479 -41 -879 -176 -1247 -420 -422 -280 -756 -680 -947
-1135 -293 -699 -270 -1452 64 -2134 377 -768 1118 -1292 1990 -1407 122 -16
478 -16 600 0 596 79 1129 344 1536 763 546 564 805 1351 698 2123 -101 733
-508 1380 -1127 1790 -319 211 -681 347 -1067 401 -112 15 -411 27 -500 19z
m1180 -1112 c0 -4 -230 -279 -511 -611 l-512 -603 -41 6 c-23 3 -365 33 -761
66 -396 33 -733 64 -749 68 -29 7 -16 21 513 525 l542 517 47 0 c69 0 1297 30
1367 33 33 2 70 4 83 5 12 1 22 -2 22 -6z m168 -124 c5 -18 107 -346 226 -729
119 -382 216 -700 216 -707 0 -20 -783 -1273 -790 -1265 -4 4 -164 347 -356
762 -244 529 -345 757 -338 767 25 36 1020 1204 1026 1204 4 0 11 -15 16 -32z
m-2253 -1159 c868 -73 1039 -89 1046 -97 11 -13 700 -1514 697 -1518 -6 -5
-1512 306 -1519 314 -10 12 -769 1321 -775 1337 -5 12 2 14 37 10 24 -3 256
-24 514 -46z" fill="url(#gradient)"
        />
        <path
                d="M2324 3526 c-78 -29 -143 -67 -188 -110 -91 -85 4 -97 161 -19 78 38
168 113 161 135 -7 21 -69 19 -134 -6z" fill="url(#gradient)"
        />
        <path
                d="M3606 3446 c-39 -41 -56 -94 -56 -175 0 -142 84 -170 144 -49 49 98
27 258 -35 258 -12 0 -36 -15 -53 -34z" fill="url(#gradient)"
        />
        <path
                d="M3138 2779 c-10 -5 -30 -31 -45 -56 -21 -37 -28 -62 -31 -128 -4 -75
-3 -83 21 -110 25 -30 25 -30 60 -13 53 26 92 111 92 204 0 57 -4 76 -19 93
-21 23 -50 27 -78 10z" fill="url(#gradient)"
        />
        <path
                d="M3560 2707 c-80 -40 -117 -228 -59 -301 11 -14 29 -26 38 -26 55 0
111 105 111 208 0 91 -40 144 -90 119z" fill="url(#gradient)"
        />
        <path
                d="M3948 2625 c-15 -9 -38 -39 -55 -72 -36 -74 -40 -187 -9 -222 62 -68
156 42 159 185 0 50 -4 71 -20 92 -24 33 -40 36 -75 17z"
        />
        <path
                d="M3465 1909 c-81 -72 -89 -285 -10 -305 97 -24 170 259 82 321 -29 20
-31 20 -72 -16z"
        />
        <path
                d="M2162 2510 c-12 -5 -27 -20 -33 -34 -47 -102 172 -238 265 -165 19
15 26 29 26 57 0 30 -8 43 -48 82 -64 61 -146 85 -210 60z"
        />
        <path
                d="M1991 2131 c-37 -10 -65 -54 -57 -87 12 -48 84 -110 149 -129 58 -17
84 -14 125 11 35 23 31 84 -10 130 -49 56 -148 92 -207 75z"
        />
        <path
                d="M1785 1738 c-28 -16 -35 -28 -35 -66 0 -24 10 -44 41 -76 99 -108
278 -97 254 15 -20 91 -183 171 -260 127z"
        />
    </g>
</svg>
