<svg xmlns="http://www.w3.org/2000/svg" viewBox="0 0 502.000000 626.000000" width="24" height="24">
    <defs>
        <linearGradient id="myGradient" gradientTransform="rotate(90)">
            <stop offset="0%" stop-opacity="0"/>
            <stop offset="1%" stop-opacity="0.1"/>
            <stop offset="2%" stop-opacity="0.2"/>
            <stop offset="3%" stop-opacity="0.3"/>
            <stop offset="4%" stop-opacity="0.4"/>
            <stop offset="5%" stop-opacity="0.5"/>
            <stop offset="10%" stop-opacity="0.6"/>
            <stop offset="15%" stop-opacity="0.7"/>
            <stop offset="20%" stop-opacity="0.8"/>
            <stop offset="25%" stop-opacity="0.9"/>
            <stop offset="30%" stop-opacity="1"/>
        </linearGradient>
    </defs>
    <g transform="translate(0.000000,626.000000) scale(0.100000,-0.100000)">
        <path fill="url(#myGradient)"
              d="M1855 6251 c-31 -14 -66 -56 -151 -181 -126 -187 -212 -296 -365
-461 -135 -146 -149 -166 -218 -295 -116 -220 -233 -424 -243 -424 -5 0 -17
-19 -27 -42 -10 -24 -37 -58 -59 -75 -24 -20 -45 -47 -53 -70 -6 -21 -61 -103
-121 -183 -59 -80 -117 -164 -129 -187 -11 -23 -27 -47 -35 -53 -7 -7 -14 -23
-14 -35 0 -12 -16 -42 -35 -66 -19 -24 -35 -53 -35 -64 0 -11 -11 -42 -25 -70
-14 -27 -35 -81 -46 -120 -46 -160 -64 -207 -136 -359 -89 -189 -138 -334
-155 -455 -21 -162 15 -244 142 -322 39 -24 110 -72 158 -106 278 -200 470
-315 622 -373 30 -11 118 -36 195 -56 77 -20 169 -48 205 -64 36 -15 102 -40
147 -54 105 -35 149 -68 207 -155 66 -99 107 -207 173 -453 31 -117 64 -243
74 -280 21 -77 76 -454 85 -578 4 -52 0 -142 -10 -234 -9 -82 -19 -214 -23
-293 l-6 -143 1522 0 1522 0 -7 53 c-12 100 -36 203 -94 412 -77 275 -105 386
-129 520 -11 61 -26 138 -32 171 -7 34 -9 69 -6 78 4 9 32 28 62 41 79 35 81
42 67 248 -7 94 -14 348 -16 562 -5 401 -11 474 -48 573 -46 124 -223 246
-543 375 -316 128 -378 165 -391 233 -8 45 16 119 68 203 23 36 56 90 75 120
52 86 115 274 132 395 7 54 12 62 60 105 72 65 81 93 81 259 0 153 -6 170 -55
158 -21 -5 -25 -3 -25 14 0 11 11 42 24 69 14 26 32 86 42 132 9 46 23 102 31
124 8 23 11 55 8 80 -4 26 -1 53 9 77 18 42 21 124 6 163 -17 45 -80 113 -114
125 -18 6 -42 24 -55 40 -13 19 -31 30 -46 30 -16 0 -35 15 -62 49 -23 29 -60
60 -92 77 -49 26 -57 34 -70 79 -14 43 -20 50 -49 56 -17 4 -41 18 -51 31 -19
24 -22 24 -133 20 -122 -5 -148 -12 -148 -42 0 -25 -5 -25 -40 0 -31 22 -11
23 -260 -7 -26 -3 -57 -15 -73 -29 -17 -14 -42 -24 -60 -24 -18 0 -49 -5 -70
-11 -36 -10 -37 -12 -21 -24 16 -11 17 -16 5 -38 -7 -14 -33 -35 -57 -48 -61
-31 -89 -78 -90 -153 -1 -48 -5 -62 -20 -70 -10 -6 -21 -12 -23 -14 -3 -1 -6
-19 -8 -40 -2 -28 -11 -44 -35 -64 -18 -15 -27 -28 -19 -28 12 0 12 -3 -1 -17
-11 -14 -14 -41 -12 -118 3 -124 30 -261 78 -385 33 -88 34 -96 18 -108 -56
-41 -55 -38 -48 -130 16 -196 41 -247 146 -299 40 -20 68 -41 73 -55 21 -56
48 -267 44 -343 -5 -102 -34 -161 -116 -237 -72 -67 -139 -95 -255 -107 -45
-4 -96 -15 -113 -25 -55 -28 -95 -21 -144 24 l-44 41 -115 -7 c-77 -4 -129
-12 -157 -25 -35 -15 -71 -18 -200 -19 -87 0 -180 -1 -208 -2 -39 -1 -65 6
-122 35 -117 60 -245 90 -447 107 -65 5 -121 11 -123 14 -2 2 5 35 16 73 11
37 63 237 116 443 146 573 225 810 357 1075 94 187 161 261 272 300 100 35
199 98 360 227 36 29 84 56 123 69 65 21 139 72 186 128 35 42 36 93 3 126
-22 22 -24 29 -14 55 21 61 -17 103 -137 150 -78 30 -203 92 -285 141 -71 42
-114 53 -145 40z"
        />
    </g>
</svg>
