<svg version="1.0" xmlns="http://www.w3.org/2000/svg"
     width="600.000000pt" height="472.000000pt" viewBox="0 0 600.000000 472.000000"
     preserveAspectRatio="xMidYMid meet">
    <defs>
        <linearGradient id="gradient">
            <stop offset="0%" stop-color="var(--color-stop)"/>
            <stop offset="100%" stop-color="var(--color-bot)"/>
        </linearGradient>
    </defs>
    <g transform="translate(0.000000,472.000000) scale(0.100000,-0.100000)" fill="#B21CC4">
        <path d="M1260 4713 c-305 -46 -518 -135 -736 -309 -163 -130 -295 -295 -389
-489 -103 -212 -140 -396 -132 -658 7 -241 38 -359 152 -586 89 -178 195 -357
413 -696 421 -655 584 -971 737 -1430 60 -179 125 -422 123 -455 -3 -34 3 -50
17 -50 16 0 36 63 37 114 1 78 91 381 185 621 141 358 309 664 682 1238 195
301 248 392 353 601 151 302 196 485 184 746 -10 225 -47 374 -141 565 -205
419 -604 709 -1075 780 -85 13 -344 19 -410 8z m320 -902 c261 -76 419 -345
352 -601 -76 -289 -373 -454 -646 -360 -257 88 -399 354 -328 611 75 268 357
427 622 350z"/>
    </g>
</svg>
