<svg xmlns="http://www.w3.org/2000/svg"
     width="24" height="24" viewBox="0 0 980.000000 980.000000">
    <defs>
        <linearGradient id="gradient">
            <stop offset="0%" stop-color="var(--color-stop)"/>
            <stop offset="100%" stop-color="var(--color-bot)"/>
        </linearGradient>
    </defs>
    <g transform="translate(0.000000,980.000000) scale(0.100000,-0.100000)">
        <path
                d="M4560 9789 c-1035 -75 -1998 -463 -2800 -1128 -150 -123 -501 -475
-622 -621 -881 -1068 -1270 -2403 -1098 -3765 119 -934 501 -1801 1124 -2545
98 -117 370 -393 496 -504 1328 -1166 3158 -1531 4825 -962 895 305 1700 879
2281 1627 735 946 1100 2126 1024 3314 -70 1094 -491 2109 -1216 2935 -112
128 -386 398 -509 501 -763 642 -1665 1026 -2665 1134 -174 19 -664 27 -840
14z m1740 -1472 c161 -49 305 -168 372 -307 68 -142 63 114 63 -3200 l0 -3015
-23 -75 c-46 -149 -143 -274 -273 -352 -76 -46 -137 -66 -244 -78 -110 -13
-2484 -13 -2598 0 -236 27 -426 183 -505 414 l-27 81 0 3020 c0 2505 2 3029
14 3075 24 101 80 199 156 276 100 100 202 154 335 174 30 4 645 7 1365 6
1198 -2 1315 -3 1365 -19z" fill="url(#gradient)"
        />
        <path
                d="M4529 7857 c-48 -32 -67 -89 -46 -139 31 -73 29 -73 422 -76 192 -2
369 0 393 3 89 13 138 102 96 174 -35 60 -44 61 -457 61 -373 0 -374 0 -408
-23z" fill="url(#gradient)"
        />
        <path
                d="M3350 4880 l0 -2330 1550 0 1550 0 0 2330 0 2330 -1550 0 -1550 0 0
-2330z" fill="url(#gradient)"
        />
        <path
                d="M4840 2221 c-90 -29 -183 -113 -223 -199 -34 -72 -31 -207 5 -284 34
-73 104 -142 176 -176 47 -22 71 -27 142 -27 77 0 92 3 152 33 74 36 132 95
169 170 20 39 24 63 24 142 0 82 -4 103 -26 151 -33 70 -91 129 -161 165 -44
23 -68 28 -143 31 -49 1 -101 -1 -115 -6z" fill="url(#gradient)"
        />
    </g>
</svg>
