<svg xmlns="http://www.w3.org/2000/svg"
     id="mouse" width="24" height="24" viewBox="0 0 512.000000 512.000000">
    <defs>
        <linearGradient id="gradient">
            <stop offset="0%" stop-color="var(--color-stop)"/>
            <stop offset="100%" stop-color="var(--color-bot)"/>
        </linearGradient>
    </defs>
    <g transform="translate(0.000000,512.000000) scale(0.100000,-0.100000)">
        <path
                d="M2370 5105 c-291 -41 -560 -175 -770 -385 -213 -214 -345 -481 -385
-780 -21 -155 -21 -2605 0 -2760 40 -299 172 -566 385 -780 214 -213 481 -345
780 -385 421 -57 838 84 1140 385 213 214 345 481 385 780 21 155 21 2605 0
2760 -40 299 -172 566 -385 780 -303 303 -726 444 -1150 385z m425 -170 c479
-100 838 -460 942 -945 17 -80 18 -167 18 -1430 0 -1263 -1 -1350 -18 -1430
-69 -321 -250 -592 -511 -765 -143 -94 -268 -146 -436 -182 -117 -24 -343 -24
-460 0 -486 103 -843 460 -947 947 -17 80 -18 167 -18 1430 0 1483 -3 1399 62
1590 125 367 446 668 817 766 173 46 387 53 551 19z"
        />
        <path d="M2480 4000 l0 -320 80 0 80 0 0 320 0 320 -80 0 -80 0 0 -320z"/>
    </g>
</svg>
