<svg version="1.0" xmlns="http://www.w3.org/2000/svg"
     viewBox="0 0 980 980" height="45" width="45"
     preserveAspectRatio="xMidYMid meet">
    <defs>
        <linearGradient id="gradient">
            <stop offset="0%" stop-color="var(--color-stop)"/>
            <stop offset="100%" stop-color="var(--color-bot)"/>
        </linearGradient>
    </defs>
    <g transform="translate(0.000000,980.000000) scale(0.100000,-0.100000)">
        <path
                d="M4560 9789 c-1035 -75 -1998 -463 -2800 -1128 -150 -123 -501 -475
-622 -621 -881 -1068 -1270 -2403 -1098 -3765 119 -934 501 -1801 1124 -2545
98 -117 370 -393 496 -504 1328 -1166 3158 -1531 4825 -962 895 305 1700 879
2281 1627 735 946 1100 2126 1024 3314 -70 1094 -491 2109 -1216 2935 -112
128 -386 398 -509 501 -763 642 -1665 1026 -2665 1134 -174 19 -664 27 -840
14z m1316 -1904 c152 -16 301 -42 439 -76 88 -22 367 -111 362 -116 -2 -1 -43
-14 -93 -28 -279 -81 -596 -241 -834 -421 -757 -572 -1122 -1485 -955 -2389
135 -729 591 -1354 1261 -1728 400 -223 842 -337 1314 -337 l175 0 -30 -25
c-16 -13 -79 -59 -139 -102 -688 -487 -1528 -678 -2362 -538 -875 147 -1649
660 -2099 1390 -506 822 -561 1828 -146 2690 153 317 340 575 602 830 332 323
705 549 1154 701 231 77 514 137 750 157 119 10 470 5 601 -8z" fill="url(#gradient)"
        />
    </g>
</svg>
