<svg xmlns="http://www.w3.org/2000/svg"
     width="24" height="24" viewBox="0 0 1000 1000">
    <defs>
        <linearGradient id="gradient">
            <stop offset="0%" stop-color="var(--color-stop)"/>
            <stop offset="100%" stop-color="var(--color-bot)"/>
        </linearGradient>
    </defs>
    <g transform="translate(0.000000,512.000000) scale(0.100000,-0.100000)">
        <path d="M4530.1,5007.9C3375.4,4889,2341.7,4400,1530.4,3588.6C751.6,2809.9,287.5,1860.5,124.4,723.1c-32.6-226.3-32.6-982,0-1208.3c163-1137.4,629.1-2086.8,1405.9-2865.5c776.8-776.8,1730-1244.8,2865.5-1405.9c226.3-32.6,982-32.6,1208.3,0c939.8,134.3,1779.9,491,2474.2,1053c987.8,797.9,1611.1,1916.1,1797.2,3218.4c32.6,226.3,32.6,982,0,1208.3c-161.1,1135.5-629.1,2088.7-1405.9,2865.5c-759.5,759.5-1687.8,1223.7-2779.2,1392.5C5448.8,5017.5,4775.6,5034.8,4530.1,5007.9z M5748,2150.1c0-15.3-740.3-2535.6-1047.2-3569.4c-9.6-30.7-38.4-34.5-258.9-34.5c-136.2,0-247.4,5.8-247.4,11.5c0,21.1,1035.7,3525.3,1054.9,3571.3c17.3,40.3,26.9,42.2,258.9,42.2C5667.5,2171.2,5748,2163.6,5748,2150.1z M3830,1137.4c0-174.5-7.7-251.3-23-264.7c-13.4-9.6-420-189.9-901.5-400.9c-483.3-209.1-878.4-387.4-878.4-393.2c0-5.8,402.8-188,897.6-402.8l895.7-393.2l5.7-262.8c1.9-143.8-1.9-262.8-9.6-260.9c-7.7,0-546.6,249.3-1194.9,550.5L1442.1-140V78.7v216.7l1170,544.7c644.5,299.2,1181.5,544.7,1194.9,544.7C3824.3,1384.9,3830,1323.5,3830,1137.4z M7234.5,857.4C7846.3,575.5,8366.1,335.7,8391,324.2c42.2-19.2,44.1-26.9,38.4-249.3l-5.8-230.2l-997.4-458.4c-548.5-251.3-1081.8-494.8-1183.4-540.9l-188-86.3v262.8v262.8l911,391.3C7466.5-109.3,7877,71,7877,78.7c0,5.8-410.5,188-911.1,402.8l-911,389.4v258.9c0,237.8,1.9,258.9,34.5,249.3C6106.7,1373.3,6622.6,1139.4,7234.5,857.4z"
              fill="url(#gradient)"/>
    </g>
</svg>
